<svg xmlns="http://www.w3.org/2000/svg" xmlns:xlink="http://www.w3.org/1999/xlink" xmlns:inkscape="http://www.inkscape.org/namespaces/inkscape" version="1.1" width="207.5" height="123" viewBox="0 0 207.5 123">
<defs>
<clipPath id="clip_1">
<path transform="matrix(1,0,0,-1,0,123)" d="M0 123H207.5V0H0Z"/>
</clipPath>
</defs>
<g inkscape:groupmode="layer" inkscape:label="Layer 1">
<g clip-path="url(#clip_1)">
<path transform="matrix(1,0,0,-1,141.8172,87.193)" d="M0 0C.37 4.737 .536 9.043 1.082 13.301 1.736 18.398 1.952 18.674-3.154 19.983-6.44 20.826-10.036 21.13-13.405 20.793-16.805 20.453-18.245 17.898-16.913 14.807-15.704 11.999-13.86 9.332-11.796 7.057-8.653 3.593-4.611 1.348 0 0M-107.196 42.495C-114.504 47.635-124.941 45.927-130.6 39.091-134.074 34.894-133.753 30.002-129.771 26.465-126.086 23.192-120.005 23.194-117.027 27.152-113.411 31.96-110.485 37.288-107.196 42.495M-108.091 75.238C-108.359 74.967-109.18 74.348-109.737 73.546-115.341 65.472-112.129 55.134-104.543 50.214-104.084 49.916-102.595 50.331-102.264 50.849-99.572 55.051-96.98 59.322-94.482 63.644-92.323 67.382-92.943 71.708-95.839 74.394-99.21 77.521-103.879 77.993-108.091 75.238M-66.375 .156C-66.585 .024-66.796-.108-67.006-.24-66.529-1.731-66.26-3.332-65.54-4.696-61.012-13.285-53.564-18.612-44.987-22.512-39.316-25.091-33.359-26.778-27.049-25.696-25.077-25.358-23.01-24.529-21.429-23.339-20.425-22.583-20.236-20.744-19.681-19.391-20.715-18.973-21.713-18.384-22.787-18.161-35.95-15.442-48.412-10.948-59.831-3.749-61.979-2.394-64.192-1.143-66.375 .156M-18.475 53.219C-18.593 53.423-18.666 53.678-18.834 53.824-26.179 60.226-34.597 64.36-44.313 65.559-47.962 66.01-51.639 65.978-55.064 64.209-58.192 62.593-59.858 59.789-58.514 56.578-57.034 53.041-54.787 49.793-52.602 46.605-52.105 45.881-50.398 45.484-49.407 45.693-45.91 46.43-42.503 47.577-39.025 48.418-32.252 50.057-25.454 51.595-18.475 53.219M2.526-13.401C2.609-9.147 2.326-8.747-1.248-7.656-2.044-7.413-2.848-7.181-3.619-6.871-12.204-3.413-19.576 1.572-23.541 10.281-27.656 19.319-22.968 27.362-13.118 28.673-7.747 29.388-2.675 28.272 2.221 26.182 3.75 25.529 4.744 25.649 5.272 27.369 5.442 27.92 5.769 28.421 6.019 28.948 8.342 33.854 7.68 33.383 12.341 30.87 14.217 29.859 14.487 28.863 13.461 26.936 6.973 14.747 6.237 2.039 10.281-11.065 10.776-12.671 11.553-13.364 13.312-13.219 22.724-12.443 32.004-10.981 40.889-7.689 45.664-5.92 50.232-3.688 53.735 .235 55.166 1.838 55.346 3.077 53.785 4.914 44.588 15.736 34.669 25.78 23.131 34.125 15.769 39.449 7.846 43.512-1.274 44.984-12.146 46.74-22.645 44.803-33.125 42.218-43.377 39.689-53.571 36.795-63.946 34.92-75.278 32.873-86.156 34.934-96.071 41.172-96.815 41.64-97.937 41.507-98.883 41.653-98.742 40.67-98.934 39.428-98.405 38.748-95.701 35.271-93.012 31.744-89.948 28.594-80.959 19.354-70.531 11.919-59.719 4.973-48.11-2.485-35.688-7.932-22.144-10.713-14.059-12.374-5.899-13.338 2.526-13.401M-104.226 32.845C-106.067 29.896-107.761 26.95-109.678 24.157-114.481 17.157-122.125 14.868-130.098 17.881-137.904 20.83-144.589 32.183-137.723 42.197-133.449 48.432-127.487 51.781-120.132 52.893-119.403 53.003-118.672 53.097-117.599 53.247-117.957 54.328-118.248 55.236-118.558 56.137-121.598 64.971-120.509 73.148-114.073 80.085-108.756 85.814-99.286 86.204-92.515 81.417-85.906 76.746-83.639 68.489-87.216 61.28-88.838 58.01-90.912 54.964-92.775 51.813-93.274 50.968-93.751 50.109-94.299 49.151-83.922 41.741-72.731 40.367-60.493 43.134-61.953 45.839-63.445 48.21-64.566 50.746-70.213 63.525-62.248 72.488-49.772 73.182-37.752 73.851-27.212 69.533-17.692 62.588-14.63 60.354-12.105 57.395-9.225 54.893-8.295 54.085-7.043 53.23-5.892 53.159 6.865 52.377 17.894 47.315 28.061 39.91 41.495 30.126 52.806 18.207 63.228 5.362 64.36 3.968 64.252 2.961 63.45 1.392 57.666-9.935 47.185-14.347 35.867-17.404 20.96-21.43 5.774-21.798-9.495-20.183-11.368-19.985-12.059-20.349-12.463-22.304-13.644-28.031-18.632-32.133-25.094-33.15-33.572-34.484-41.483-32.529-49.09-28.988-56.184-25.686-62.544-21.331-67.574-15.248-72.271-9.566-75.706-3.435-74.234 4.382-74.134 4.914-74.625 5.808-75.111 6.163-85.575 13.793-95.402 22.097-103.373 32.409-103.464 32.526-103.66 32.561-104.226 32.845"/>
<path transform="matrix(1,0,0,-1,178.5276,76.4181)" d="M0 0C-.03-1.926-1.743-3.569-3.748-3.594-5.827-3.621-7.68-1.821-7.606 .151-7.533 2.086-5.808 3.749-3.852 3.769-1.798 3.79 .031 2 0 0"/>
<path transform="matrix(1,0,0,-1,106.5,67.5)" d="M0 0C0-2.209-1.791-4-4-4-6.209-4-8-2.209-8 0-8 2.209-6.209 4-4 4-1.791 4 0 2.209 0 0" fill="#e51717"/>
</g>
</g>
</svg>
